<svg width="32" height="32">
    <g>
        <g>
            <g>
                <g fill="#3a556a">
                    <path d="m22.258014704932066,27.16043969111297 h2.6366198361957913 c0.3118349007367236,0 0.5647233315741431,0.2528015699559667 0.5647233315741431,0.5647233315741431 v3.7032999658650283 c0,0.3118349007367236 -0.2528015699559667,0.5647233315741431 -0.5647233315741431,0.5647233315741431 h-2.6366198361957913 c-0.3118349007367236,0 -0.5647233315741431,-0.2528015699559667 -0.5647233315741431,-0.5647233315741431 v-3.7032999658650283 c0.00008681373361207282,-0.3119217280032842 0.2528883972225273,-0.5647233315741431 0.5647233315741431,-0.5647233315741431 z" fill="#2f4859" data-original="#3a556a" />
                    <path d="m6.142088249561141,27.16043969111297 h2.6366198361957913 c0.3118349007367236,0 0.5647233315741431,0.2528015699559667 0.5647233315741431,0.5647233315741431 v3.7032999658650283 c0,0.3118349007367236 -0.2528015699559667,0.5647233315741431 -0.5647233315741431,0.5647233315741431 h-2.6366198361957913 c-0.3118349007367236,0 -0.5647233315741431,-0.2528015699559667 -0.5647233315741431,-0.5647233315741431 v-3.7032999658650283 c0.00008681373361207282,-0.3119217280032842 0.2528883972225273,-0.5647233315741431 0.5647233315741431,-0.5647233315741431 z" fill="#2f4859" data-original="#3a556a" />
                    <path d="m29.34557435016677,10.149122764297772 h-0.44231591175265805 v-5.653223489532024 c0,-0.0948874117981866 -0.07691695765619144,-0.17180436945437805 -0.17180436945437805,-0.17180436945437805 h-3.6242995908049807 v-0.44275001447056894 h3.622997484340601 c0.3390944269603402,0.0004340686434400817 0.6138599002520309,0.27537314650549227 0.6140334875553677,0.6144675902732786 z" fill="#2f4859" data-original="#3a556a" />
                    <path d="m27.86453124296486,7.22783427226301 h2.5172509337103293 c0.15227127662598328,0 0.27572040514939644,0.12344912852341317 0.27572040514939644,0.27572040514939644 v6.444704144036336 c0,0.15227127662598328 -0.12344912852341317,0.27572040514939644 -0.27572040514939644,0.27572040514939644 h-2.5172509337103293 c-0.15227127662598328,0 -0.27572040514939644,-0.12344912852341317 -0.27572040514939644,-0.27572040514939644 v-6.444790735998652 c0,-0.15218446616686876 0.12344912852341317,-0.2756335778828358 0.27572040514939644,-0.2756335778828358 z" fill="#2f4859" data-original="#3a556a" />
                    <path d="m1.691235704782386,10.149122764297772 h0.44231591175265805 v-5.653223489532024 c0,-0.0948874117981866 0.07691695765619144,-0.17180436945437805 0.17180436945437805,-0.17180436945437805 h3.624212729923528 v-0.44275001447056894 h-3.622997484340601 c-0.3390944269603402,0.0004340686434400817 -0.6138599002520309,0.27537314650549227 -0.6140334875553677,0.6144675902732786 z" fill="#2f4859" data-original="#3a556a" />
                    <path d="m0.6550268025974191,7.22783427226301 h2.5172509337103293 c0.15227127662598328,0 0.27572040514939644,0.12344912852341317 0.27572040514939644,0.27572040514939644 v6.444704144036336 c0,0.15227127662598328 -0.12344912852341317,0.27572040514939644 -0.27572040514939644,0.27572040514939644 h-2.5172509337103293 c-0.15227127662598328,0 -0.27572040514939644,-0.12344912852341317 -0.27572040514939644,-0.27572040514939644 v-6.444790735998652 c0.00008681373361207282,-0.15218446616686876 0.12344912852341317,-0.2756335778828358 0.27572040514939644,-0.2756335778828358 z" fill="#2f4859" data-original="#3a556a" />
                </g>
                <path d="m6.1158707849958205,0.553855184330061 h18.80454718520923 c1.099235413240315,0 1.990378374135588,0.891142960895273 1.990378374135588,1.990378374135588 v25.294742766242734 c0,1.099235413240315 -0.891142960895273,1.990378374135588 -1.990378374135588,1.990378374135588 h-18.80454718520923 c-1.099235413240315,0 -1.990378374135588,-0.891142960895273 -1.990378374135588,-1.990378374135588 v-25.294742766242734 c0.00008681373361207282,-1.099235413240315 0.891142960895273,-1.990378374135588 1.990378374135588,-1.990378374135588 z" fill="#ff6d00" data-original="#029bc5" />
                <path d="m24.262542259493785,5.68021108929139 h-17.59011158672513 c-0.44622256729471843,0.00026044119262945767 -0.8078885539971381,0.3619264348872093 -0.8081490021819278,0.8081490021819278 v11.808924539069153 c0.002430784508310996,0.785230166988498 0.5771376474136716,1.4512650187948708 1.3535127778086746,1.5686373311430373 c5.466053080553763,0.8562437781206569 11.032115037037102,0.8562437781206569 16.49816757975259,0 c0.776375130395003,-0.11737216108115156 1.3510820177236837,-0.7834938905764233 1.3535127778086746,-1.5686373311430373 v-11.808924539069153 c-0.00026044119262945767,-0.4457016709251391 -0.36114509033284037,-0.807194070324222 -0.8069336221394323,-0.8081490021819278 z" fill="#2f4859" data-original="#3a556a"/>
                <path d="m25.071560744477438,15.948361815824228 v2.35022122354448 c-0.0038198041147959882,0.7843620287824606 -0.5783530946859514,1.4490947068946696 -1.353946813296801,1.566467019242836 c-5.466053080553763,0.8540734662204557 -11.03159440958666,0.8540734662204557 -16.497733006426188,0 c-0.776288403973119,-0.1160699537720955 -1.3515160532118102,-0.7815840268610117 -1.353946813296801,-1.566467019242836 v-2.35022122354448 c0.002170343282854495,0.7850565796851612 0.5774848892501296,1.4508309833067443 1.353946813296801,1.5669009202713937 c5.465705637027952,0.8584140900208581 11.03194077743592,0.8584140900208581 16.497733006426188,0 c0.7756807139518713,-0.1175457819993806 1.350127085865978,-0.7823653041855962 1.353946813296801,-1.5669009202713937 z" fill="#2f4859" data-original="#2f4859" />
                <path d="m11.434688486346886,2.2290191845412863 h8.167435636987193 c0.2708588177496303,0 0.4904107549211716,0.2195519203640952 0.4904107549211716,0.4904107549211716 v0.8932264119140214 c0,0.2708588177496303 -0.2195519203640952,0.4904107549211716 -0.4904107549211716,0.4904107549211716 h-8.167435636987193 c-0.2708588177496303,0 -0.4904107549211716,-0.2195519203640952 -0.4904107549211716,-0.4904107549211716 v-0.8932264119140214 c0,-0.2708588177496303 0.2195519203640952,-0.4904107549211716 0.4904107549211716,-0.4904107549211716 z" fill="#e1e6e9" data-original="#e1e6e9" />
                <path d="m10.681057662624994,22.878704879144152 h9.674695133077876 v0.44318408357358763 h-9.674695133077876 z" fill="#ff6d00" data-original="#048baa" />
                <path d="m11.62402907276578,24.06049476999715 h7.789187961799257 v0.44318408357358763 h-7.789187961799257 z" fill="#ff6d00" data-original="#048baa" />
                <path d="m12.21531664013321,25.24220721213851 h6.605656012772727 v0.44318408357358763 h-6.605656012772727 z" fill="#ff6d00" data-original="#048baa" />
                <path d="m13.902455071704594,26.42443597902411 h3.2313804942256468 v0.44318408357358763 h-3.2313804942256468 z" fill="#ff6d00" data-original="#048baa" />
                <path d="m25.83682285873988,24.276490621337416 c-0.003472549147520654,-0.4193103165224521 -0.3462131535268682,-0.7564080188859279 -0.7654366427827597,-0.7529354660617784 c-0.07978182045909321,0.0006945098688965826 -0.1589559340894926,0.013890196590082615 -0.2346575117031886,0.03923980237315705 c-1.615863968875729,0.5868608222132039 -2.908259897655114,1.8295994204046906 -3.5581473653832347,3.4211553850518044 c-0.16529334971654386,0.38718923651396153 0.014497891863657242,0.8349744256876335 0.401687104216915,1.0002677922116234 c0.09523466203836772,0.04062882434318915 0.1977616883689386,0.061464120278778456 0.3012436549609383,0.06120367629585033 h3.134757041319631 c0.4209597656679662,0 0.7622245381433999,-0.341177945208873 0.7623113317950683,-0.7621377444917314 c0,-0.003646176631158321 0,-0.00720553912657329 -0.00008681373361207282,-0.010851716020347957 z" fill="#ebf0f3" data-original="#ebf0f3" />
                <circle cx="23.42609536370639" cy="26.694513112069142" fill="#ffd500" r="0.900517683722228" data-original="#d5d6db" />
                <circle cx="24.57429222755956" cy="25.246113697996815" fill="#ffd500" r="0.5479668456491709" data-original="#d5d6db" />
                <path d="m5.199985986073159,24.276490621337416 c0.0030384805697346584,-0.4193103165224521 0.34543184258739146,-0.7566683998409331 0.7647421591098436,-0.7536299497346945 c0.08082357958335962,0.000607696127077749 0.1609526418789109,0.014063823811103937 0.23752235769864427,0.039934315459103864 c1.615863968875729,0.5868608222132039 2.908259897655114,1.8295994204046906 3.5581473653832347,3.4211553850518044 c0.16529334971654386,0.38718923651396153 -0.014497891863657242,0.8349744256876335 -0.401687104216915,1.0002677922116234 c-0.09523466203836772,0.04062882434318915 -0.1977616883689386,0.061464120278778456 -0.3012436549609383,0.06120367629585033 h-3.134757041319631 c-0.4209597656679662,0 -0.7622245381433999,-0.341177945208873 -0.7623113317950683,-0.7621377444917314 c0,-0.003646176631158321 0,-0.00720553912657329 0.00008681373361207282,-0.010851716020347957 z" fill="#ebf0f3" data-original="#ebf0f3" />
                <circle cx="7.610716742340666" cy="26.694513112069142" fill="#ffd500" r="0.900517683722228" data-original="#d5d6db" />
                <circle cx="6.462431787775174" cy="25.246113697996815" fill="#ffd500" r="0.5479668456491709" data-original="#d5d6db" />
            </g>
        </g>
    </g>
</svg>