<svg xmlns="http://www.w3.org/2000/svg" xmlns:xlink="http://www.w3.org/1999/xlink" xmlns:svgjs="http://svgjs.com/svgjs" version="1.1" width="20" height="20" style="" xml:space="preserve"><rect id="backgroundrect" width="100%" height="100%" x="0" y="0" fill="none" stroke="none"/>
    
<g class="currentLayer" style=""><title>Layer 1</title><g id="svg_1" class="">
        <g xmlns="http://www.w3.org/2000/svg" id="svg_2">
            <g fill="#3a556a" id="svg_3">
                <path d="m14.317999690771103,17.006541796028614 h1.620688557624817 c0.19167999923229218,0 0.3471265137195587,0.15539313852787018 0.3471265137195587,0.3471265137195587 v2.276360034942627 c0,0.19167999923229218 -0.15539313852787018,0.3471265137195587 -0.3471265137195587,0.3471265137195587 h-1.620688557624817 c-0.19167999923229218,0 -0.3471265137195587,-0.15539313852787018 -0.3471265137195587,-0.3471265137195587 v-2.276360034942627 c0.00005336303365766071,-0.19173336029052734 0.15544651448726654,-0.3471265137195587 0.3471265137195587,-0.3471265137195587 z" fill="#2f4859" data-original="#3a556a" style="" class="" id="svg_4"/>
                <path d="m4.411793798208237,17.006541796028614 h1.620688557624817 c0.19167999923229218,0 0.3471265137195587,0.15539313852787018 0.3471265137195587,0.3471265137195587 v2.276360034942627 c0,0.19167999923229218 -0.15539313852787018,0.3471265137195587 -0.3471265137195587,0.3471265137195587 h-1.620688557624817 c-0.19167999923229218,0 -0.3471265137195587,-0.15539313852787018 -0.3471265137195587,-0.3471265137195587 v-2.276360034942627 c0.00005336303365766071,-0.19173336029052734 0.15544651448726654,-0.3471265137195587 0.3471265137195587,-0.3471265137195587 z" fill="#2f4859" data-original="#3a556a" style="" class="" id="svg_5"/>
                <path d="m18.67460998892784,6.549953527748585 h-0.27188462018966675 v-3.474947214126587 c0,-0.05832579731941223 -0.047279637306928635,-0.10560543835163116 -0.10560543835163116,-0.10560543835163116 h-2.227799654006958 v-0.2721514403820038 h2.226999521255493 c0.2084359973669052,0.0002668151573743671 0.3773300051689148,0.16926753520965576 0.37743666768074036,0.3777035176753998 z" fill="#2f4859" data-original="#3a556a" style="" class="" id="svg_6"/>
                <path d="m17.7642363011837,4.754283018410206 h1.5473145246505737 c0.09359874576330185,0 0.16948099434375763,0.07588223367929459 0.16948099434375763,0.16948099434375763 v3.9614579677581787 c0,0.09359874576330185 -0.07588223367929459,0.16948099434375763 -0.16948099434375763,0.16948099434375763 h-1.5473145246505737 c-0.09359874576330185,0 -0.16948099434375763,-0.07588223367929459 -0.16948099434375763,-0.16948099434375763 v-3.9615113735198975 c0,-0.09354539215564728 0.07588223367929459,-0.16942760348320007 0.16948099434375763,-0.16942760348320007 z" fill="#2f4859" data-original="#3a556a" style="" class="" id="svg_7"/>
                <path d="m1.6759247481822968,6.549953527748585 h0.27188462018966675 v-3.474947214126587 c0,-0.05832579731941223 0.047279637306928635,-0.10560543835163116 0.10560543835163116,-0.10560543835163116 h2.2277464866638184 v-0.2721514403820038 h-2.226999521255493 c-0.2084359973669052,0.0002668151573743671 -0.3773300051689148,0.16926753520965576 -0.37743666768074036,0.3777035176753998 z" fill="#2f4859" data-original="#3a556a" style="" class="" id="svg_8"/>
                <path d="m1.0389834940433502,4.754283018410206 h1.5473145246505737 c0.09359874576330185,0 0.16948099434375763,0.07588223367929459 0.16948099434375763,0.16948099434375763 v3.9614579677581787 c0,0.09359874576330185 -0.07588223367929459,0.16948099434375763 -0.16948099434375763,0.16948099434375763 h-1.5473145246505737 c-0.09359874576330185,0 -0.16948099434375763,-0.07588223367929459 -0.16948099434375763,-0.16948099434375763 v-3.9615113735198975 c0.00005336303365766071,-0.09354539215564728 0.07588223367929459,-0.16942760348320007 0.16948099434375763,-0.16942760348320007 z" fill="#2f4859" data-original="#3a556a" style="" class="" id="svg_9"/>
            </g>
            <path d="m4.395678132772446,0.6518935635685921 h11.558857917785645 c0.6756826639175415,0 1.223454236984253,0.5477715134620667 1.223454236984253,1.223454236984253 v15.54827880859375 c0,0.6756826639175415 -0.5477715134620667,1.223454236984253 -1.223454236984253,1.223454236984253 h-11.558857917785645 c-0.6756826639175415,0 -1.223454236984253,-0.5477715134620667 -1.223454236984253,-1.223454236984253 v-15.54827880859375 c0.00005336303365766071,-0.6756826639175415 0.5477715134620667,-1.223454236984253 1.223454236984253,-1.223454236984253 z" fill="#ff6d00" data-original="#029bc5" style="" class="" id="svg_10"/>
            <path d="m15.550150722265244,3.8029835894703865 h-10.812363624572754 c-0.2742859721183777,0.0001600890827830881 -0.4965963661670685,0.2224704772233963 -0.4967564344406128,0.4967564344406128 v7.258759498596191 c0.0014941649278625846,0.48266857862472534 0.3547573983669281,0.8920696973800659 0.8319829702377319,0.9642166495323181 c3.359896659851074,0.5263195633888245 6.781267166137695,0.5263195633888245 10.141162872314453,0 c0.47722554206848145,-0.07214681804180145 0.8304887413978577,-0.4816013276576996 0.8319829702377319,-0.9642166495323181 v-7.258759498596191 c-0.0001600890827830881,-0.2739657759666443 -0.2219901829957962,-0.49616944789886475 -0.49600937962532043,-0.4967564344406128 z" fill="#2f4859" data-original="#3a556a" style="" class="" id="svg_11"/>
            <path d="m16.047441333532333,10.114654131233692 v1.4446438550949097 c-0.002347973408177495,0.48213496804237366 -0.3555045425891876,0.8907356262207031 -0.8322497606277466,0.9628825783729553 c-3.359896659851074,0.5249854922294617 -6.780946731567383,0.5249854922294617 -10.14089584350586,0 c-0.47717222571372986,-0.07134636491537094 -0.8307555913925171,-0.4804273843765259 -0.8322497606277466,-0.9628825783729553 v-1.4446438550949097 c0.0013340756995603442,0.4825619161128998 0.35497087240219116,0.8918029069900513 0.8322497606277466,0.9631493091583252 c3.3596832752227783,0.5276536345481873 6.7811598777771,0.5276536345481873 10.14089584350586,0 c0.4767987132072449,-0.07225354015827179 0.8299018144607544,-0.4809076189994812 0.8322497606277466,-0.9631493091583252 z" fill="#2f4859" data-original="#2f4859" style="" class="" id="svg_12"/>
            <path d="m7.665071338415146,1.681590385735035 h5.0203938484191895 c0.16649264097213745,0 0.3014477491378784,0.13495510816574097 0.3014477491378784,0.3014477491378784 v0.5490521788597107 c0,0.16649264097213745 -0.13495510816574097,0.3014477491378784 -0.3014477491378784,0.3014477491378784 h-5.0203938484191895 c-0.16649264097213745,0 -0.3014477491378784,-0.13495510816574097 -0.3014477491378784,-0.3014477491378784 v-0.5490521788597107 c0,-0.16649264097213745 0.13495510816574097,-0.3014477491378784 0.3014477491378784,-0.3014477491378784 z" fill="#e1e6e9" data-original="#e1e6e9" style="" class="" id="svg_13"/>
            <path d="m7.201826900243759,14.374625749886036 h5.946882247924805 v0.2724182605743408 h-5.946882247924805 z" fill="#ff6d00" data-original="#048baa" style="" class="" id="svg_14"/>
            <path d="m7.78145632147789,15.101054735481739 h4.787890911102295 v0.2724182605743408 h-4.787890911102295 z" fill="#ff6d00" data-original="#048baa" style="" class="" id="svg_15"/>
            <path d="m8.144911140203476,15.827434130012989 h4.0603928565979 v0.2724182605743408 h-4.0603928565979 z" fill="#ff6d00" data-original="#048baa" style="" class="" id="svg_16"/>
            <path d="m9.181968539953232,16.55413205176592 h1.9862785339355469 v0.2724182605743408 h-1.9862785339355469 z" fill="#ff6d00" data-original="#048baa" style="" class="" id="svg_17"/>
            <path d="m16.517835468053818,15.233823366463184 c-0.002134521258994937,-0.2577434480190277 -0.21281176805496216,-0.4649520814418793 -0.4705018401145935,-0.46281754970550537 c-0.04904062673449516,0.00042690426926128566 -0.09770770370960236,0.008538085035979748 -0.14424027502536774,0.024120086804032326 c-0.9932460784912109,0.36073410511016846 -1.7876614332199097,1.1246259212493896 -2.1871371269226074,2.1029303073883057 c-0.10160321742296219,0.2379991114139557 0.008911625482141972,0.5132455825805664 0.24691073596477509,0.614848792552948 c0.058539245277643204,0.024973897263407707 0.12156099081039429,0.03778102621436119 0.18516972661018372,0.03762093558907509 h1.926885724067688 c0.2587573230266571,0 0.4685274064540863,-0.20971669256687164 0.4685807526111603,-0.46847406029701233 c0,-0.0022412471007555723 0,-0.004429131280630827 -0.00005336303365766071,-0.006670378614217043 z" fill="#ebf0f3" data-original="#ebf0f3" style="" class="" id="svg_18"/>
            <circle cx="15.036000479565018" cy="16.720143732699626" fill="#ffd500" r="0.5535335540771484" data-original="#d5d6db" style="" class="" id="svg_19"/>
            <circle cx="15.741779168656421" cy="15.8298347967052" fill="#ffd500" r="0.33682680130004883" data-original="#d5d6db" style="" class="" id="svg_20"/>
            <path d="m3.8326981961727142,15.233823366463184 c0.0018677060725167394,-0.2577434480190277 0.21233150362968445,-0.4651121199131012 0.47007492184638977,-0.4632444381713867 c0.04968097805976868,0.00037354123196564615 0.09893505275249481,0.008644810877740383 0.14600124955177307,0.024546993896365166 c0.9932460784912109,0.36073410511016846 1.7876614332199097,1.1246259212493896 2.1871371269226074,2.1029303073883057 c0.10160321742296219,0.2379991114139557 -0.008911625482141972,0.5132455825805664 -0.24691073596477509,0.614848792552948 c-0.058539245277643204,0.024973897263407707 -0.12156099081039429,0.03778102621436119 -0.18516972661018372,0.03762093558907509 h-1.926885724067688 c-0.2587573230266571,0 -0.4685274064540863,-0.20971669256687164 -0.4685807526111603,-0.46847406029701233 c0,-0.0022412471007555723 0,-0.004429131280630827 0.00005336303365766071,-0.006670378614217043 z" fill="#ebf0f3" data-original="#ebf0f3" style="" class="" id="svg_21"/>
            <circle cx="5.314536421895241" cy="16.720143732699626" fill="#ffd500" r="0.5535335540771484" data-original="#d5d6db" style="" class="" id="svg_22"/>
            <circle cx="4.608703801616571" cy="15.8298347967052" fill="#ffd500" r="0.3368266820907593" data-original="#d5d6db" style="" class="" id="svg_23"/>
        </g>
    </g></g></svg>