<svg xmlns="http://www.w3.org/2000/svg" xmlns:xlink="http://www.w3.org/1999/xlink" xmlns:svgjs="http://svgjs.com/svgjs" version="1.1" width="32" height="32" style="" xml:space="preserve">
    <rect id="backgroundrect" width="100%" height="100%" x="0" y="0" fill="none" stroke="none" style="" class="" />
    <g class="currentLayer" style="">
        <title>Layer 1</title>
        <path fill="#ff6d00" fill-opacity="1" stroke="#ffffff" stroke-width="0.2" stroke-dasharray="none" stroke-linejoin="miter" stroke-linecap="butt" stroke-dashoffset="" fill-rule="nonzero" opacity="1" marker-start="" marker-mid="" marker-end="" d="M7.257833480834961,4.522117853164673 C7.257833480834961,2.891980866863303 8.627696494533591,1.5221178531646729 10.257833480834961,1.5221178531646729 L23.076129913330078,1.5221178531646729 C24.706266899631448,1.5221178531646729 26.076129913330078,2.891980866863303 26.076129913330078,4.522117853164673 L26.076129913330078,17.34041428565979 C26.076129913330078,18.97055127196116 24.706266899631448,20.34041428565979 23.076129913330078,20.34041428565979 L10.257833480834961,20.34041428565979 C8.627696494533591,20.34041428565979 7.257833480834961,18.97055127196116 7.257833480834961,17.34041428565979 L7.257833480834961,4.522117853164673 Z" id="svg_2" class="" filter="" stroke-opacity="1" />
        <path xmlns="http://www.w3.org/2000/svg" d="m15.083406448364258,28.016990512609482 v-7.67874813079834 h3.165849208831787 v7.67874813079834 " fill="#ffffff" data-original="#e1e6e9" style="" class="" id="svg_5" />
        <path xmlns="http://www.w3.org/2000/svg" d="m18.249691009521484,28.234186167721987 a0.2171960175037384,0.20845451002780457 0 0 1 -0.2171960175037384,-0.20845451002780457 v-7.161245952189432 h-2.731891393661499 v7.161245952189432 a0.2171960175037384,0.20845451002780457 0 0 1 -0.4343920350074768,0 v-7.369700491407514 a0.2171960175037384,0.20845451002780457 0 0 1 0.2171960175037384,-0.20845451002780457 h3.166283369064331 a0.2171960175037384,0.20845451002780457 0 0 1 0.2171960175037384,0.20845451002780457 v7.369700491407514 a0.2171960175037384,0.20845451002780457 0 0 1 -0.2171960175037384,0.20845451002780457 z" fill="#ff6d00" data-original="#323c6b" style="" class="" id="svg_6" opacity="1" stroke-width="0.2" stroke="#ffffff" stroke-opacity="1" />
        <path xmlns="http://www.w3.org/2000/svg" d="m21.917663611471653,31.142410315573215 c-0.16072505712509155,-1.7901294231414795 -2.4095726013183594,-3.2101569175720215 -5.169265270233154,-3.2101569175720215 s-5.008106231689453,1.4200276136398315 -5.169265270233154,3.2101569175720215 z" fill="#ff6d00" data-original="#9297ab" style="" class="" id="svg_7" stroke="none" />
        <path xmlns="http://www.w3.org/2000/svg" d="m21.836030960083008,31.277973026037216 h-10.338530540466309 a0.2171960175037384,0.2171960175037384 0 0 1 -0.2171960175037384,-0.23674365878105164 c0.1715848445892334,-1.9113249778747559 2.5368494987487793,-3.4078054428100586 5.386460781097412,-3.4078054428100586 s5.212704181671143,1.4969149827957153 5.386460781097412,3.4078054428100586 a0.2171960175037384,0.2171960175037384 0 0 1 -0.2171960175037384,0.23674365878105164 zm-10.08658218383789,-0.4343920350074768 h9.83506965637207 c-0.3231876790523529,-1.5746711492538452 -2.416088342666626,-2.7757647037506104 -4.917752265930176,-2.7757647037506104 s-4.594563961029053,1.2010940313339233 -4.917752265930176,2.7757647037506104 z" fill="#ffffff" data-original="#323c6b" style="" class="" id="svg_8" stroke="none" stroke-width="0.2" fill-opacity="1" />
        <path xmlns="http://www.w3.org/2000/svg" d="m11.323742866516113,13.447046130895615 h-0.9122231602668762 a0.7575796842575073,0.7575796842575073 0 0 1 -0.7571452856063843,-0.7571452856063843 v-4.774837017059326 a0.7384665012359619,0.7384665012359619 0 0 1 0.7415072321891785,-0.7384665012359619 h11.26639175415039 a1.135066270828247,1.135066270828247 0 0 1 1.1033557653427124,0.8644400835037231 l0.8844221234321594,4.203176975250244 a0.9699974060058594,0.9699974060058594 0 0 1 -0.9426307678222656,1.203700304031372 h-11.38367748260498 z" fill="#ffffff" data-original="#89c5cd" style="" class="" id="svg_9" />
        <path xmlns="http://www.w3.org/2000/svg" d="m22.706987380981445,13.664242595434189 h-12.295467376708984 a0.9752100706100464,0.9752100706100464 0 0 1 -0.9747756719589233,-0.9743413329124451 v-4.774837017059326 a0.9591375589370728,0.9591375589370728 0 0 1 0.9587032198905945,-0.9556624889373779 h11.266826629638672 a1.3492215871810913,1.3492215871810913 0 0 1 1.3140358924865723,1.029943585395813 l0.8861597776412964,4.210127830505371 a1.1863245964050293,1.1863245964050293 0 0 1 -1.1550483703613281,1.4656386375427246 zm-12.3106689453125,-6.271317958831787 a0.5234423875808716,0.5234423875808716 0 0 0 -0.5243111848831177,0.5212704539299011 v4.7757062911987305 a0.5403836965560913,0.5403836965560913 0 0 0 0.5395148396492004,0.5399492979049683 h12.293293952941895 a0.7528014183044434,0.7528014183044434 0 0 0 0.7341225147247314,-0.9348115921020508 l-0.8861597776412964,-4.210996627807617 a0.9152640700340271,0.9152640700340271 0 0 0 -0.8905036449432373,-0.6911176443099976 z" fill="#ff6d00" data-original="#323c6b" style="" class="" id="svg_10" />
        <path xmlns="http://www.w3.org/2000/svg" d="m23.26952362060547,10.427153438329697 h-13.614714622497559 v2.2627480030059814 a0.7575796842575073,0.7575796842575073 0 0 0 0.7567108869552612,0.7571452856063843 h12.293293952941895 a0.9699974060058594,0.9699974060058594 0 0 0 0.9426307678222656,-1.203700304031372 z" fill="#ffffff" data-original="#e1e6e9" style="" class="" id="svg_11" />
        <path xmlns="http://www.w3.org/2000/svg" d="m22.706987380981445,13.664242595434189 h-12.295467376708984 a0.9752100706100464,0.9752100706100464 0 0 1 -0.9747756719589233,-0.9743413329124451 v-2.2627480030059814 a0.2171960175037384,0.2171960175037384 0 0 1 0.2171960175037384,-0.2171960175037384 h13.615583419799805 a0.2171960175037384,0.2171960175037384 0 0 1 0.2128520905971527,0.17375682294368744 l0.3818306028842926,1.8161932229995728 a1.1863245964050293,1.1863245964050293 0 0 1 -1.1550483703613281,1.4656386375427246 zm-12.834980964660645,-3.0198934078216553 v2.0455522537231445 a0.5403836965560913,0.5403836965560913 0 0 0 0.5395148396492004,0.5399492979049683 h12.293293952941895 a0.7528014183044434,0.7528014183044434 0 0 0 0.7341225147247314,-0.9348115921020508 l-0.3475136458873749,-1.650689721107483 z" fill="#ff6d00" data-original="#323c6b" style="" class="" id="svg_12" />
        <path xmlns="http://www.w3.org/2000/svg" d="m23.26952362060547,10.652167171239853 h-13.614714622497559 a0.2171960175037384,0.2171960175037384 0 0 1 0,-0.4343920350074768 h13.614714622497559 a0.2171960175037384,0.2171960175037384 0 1 1 0,0.4343920350074768 z" fill="#ff6d00" data-original="#323c6b" style="" class="" id="svg_13" />
        <path xmlns="http://www.w3.org/2000/svg" d="m12.977039337158203,10.652167171239853 a0.2171960175037384,0.2171960175037384 0 0 1 -0.2171960175037384,-0.2171960175037384 v-3.2579400539398193 a0.2171960175037384,0.2171960175037384 0 0 1 0.4343920350074768,0 v3.2579400539398193 a0.2171960175037384,0.2171960175037384 0 0 1 -0.2171960175037384,0.2171960175037384 z" fill="#ff6d00" data-original="#323c6b" style="" class="" id="svg_14" />
        <path xmlns="http://www.w3.org/2000/svg" d="m16.01517677307129,10.652167171239853 a0.2171960175037384,0.2171960175037384 0 0 1 -0.2171960175037384,-0.2171960175037384 v-3.2579400539398193 a0.2171960175037384,0.2171960175037384 0 0 1 0.4343920350074768,0 v3.2579400539398193 a0.2171960175037384,0.2171960175037384 0 0 1 -0.2171960175037384,0.2171960175037384 z" fill="#ff6d00" data-original="#323c6b" style="" class="" id="svg_15" />
        <path xmlns="http://www.w3.org/2000/svg" d="m19.05592155456543,10.650865405797958 a0.2171960175037384,0.2171960175037384 0 0 1 -0.2171960175037384,-0.2171960175037384 v-3.2579400539398193 a0.2171960175037384,0.2171960175037384 0 0 1 0.4343920350074768,0 v3.2579400539398193 a0.2171960175037384,0.2171960175037384 0 0 1 -0.2171960175037384,0.2171960175037384 z" fill="#ff6d00" data-original="#323c6b" style="" class="" id="svg_16" />
        <circle xmlns="http://www.w3.org/2000/svg" cx="20.824764251708984" cy="13.447916030883789" fill="#ffffff" r="1.1841516494750977" data-original="#707583" style="" class="" id="svg_17" />
        <path xmlns="http://www.w3.org/2000/svg" d="m20.824764251708984,14.849265903234482 a1.4013487100601196,1.4013487100601196 0 1 1 1.4022173881530762,-1.4013487100601196 a1.4026519060134888,1.4026519060134888 0 0 1 -1.4022173881530762,1.4013487100601196 zm0,-2.368305206298828 a0.9669566750526428,0.9669566750526428 0 1 0 0.9678254127502441,0.9669566750526428 a0.9682598114013672,0.9682598114013672 0 0 0 -0.9678254127502441,-0.9669566750526428 z" fill="#ff6d00" data-original="#323c6b" style="" class="" id="svg_18" />
        <circle xmlns="http://www.w3.org/2000/svg" cx="12.50963306427002" cy="13.447916030883789" fill="#ffffff" r="1.1841521263122559" data-original="#707583" style="" class="" id="svg_19" />
        <path d="m12.5100679397583,14.849265903234482 a1.4013487100601196,1.4013487100601196 0 1 1 1.4009140729904175,-1.4013487100601196 a1.4030863046646118,1.4030863046646118 0 0 1 -1.4009140729904175,1.4013487100601196 zm0,-2.368305206298828 a0.9669566750526428,0.9669566750526428 0 1 0 0.9665221571922302,0.9669566750526428 a0.9682598114013672,0.9682598114013672 0 0 0 -0.9665221571922302,-0.9669566750526428 z" fill="#ff6d00" data-original="#323c6b" style="" class="" id="svg_21" />
        <rect fill="#ff6d00" stroke="none" style="color: rgb(0, 0, 0);" stroke-width="0.2" stroke-dashoffset="" fill-rule="nonzero" id="svg_1" x="14.918367385864258" y="19.653060913085938" width="3.4897959232330322" height="9.755098342895508" class="" />
    </g>
</svg>